HIERARCHY
ROOT Spine
{
    OFFSET 0.0 0.0 -0.0
    CHANNELS 6 Xposition Yposition Zposition Zrotation Xrotation Yrotation
    JOINT ShoulderCenter
    {
        OFFSET 0.0 33.01592254638672 0.0
        CHANNELS 3 Zrotation Xrotation Yrotation
        JOINT LeftShoulder
        {
            OFFSET 18.589237213134766 0.0 0.0
            CHANNELS 3 Zrotation Xrotation Yrotation
            JOINT LeftElbow
            {
                OFFSET 28.857070922851562 0.0 0.0
                CHANNELS 3 Zrotation Xrotation Yrotation
                JOINT LeftHand
                {
                    OFFSET 32.59867858886719 0.0 0.0
                    CHANNELS 3 Zrotation Xrotation Yrotation
                    End Site
                    {
                        OFFSET 13.039470672607422 0.0 0.0
                    }
                }
            }
        }
        JOINT RightShoulder
        {
            OFFSET -18.589237213134766 0.0 0.0
            CHANNELS 3 Zrotation Xrotation Yrotation
            JOINT RightElbow
            {
                OFFSET -28.857070922851562 0.0 0.0
                CHANNELS 3 Zrotation Xrotation Yrotation
                JOINT RightHand
                {
                    OFFSET -32.59867858886719 0.0 0.0
                    CHANNELS 3 Zrotation Xrotation Yrotation
                    End Site
                    {
                        OFFSET -13.039470672607422 0.0 0.0
                    }
                }
            }
        }
        End Site
        {
            OFFSET 0.0 13.20637035369873 0.0
        }
    }
    JOINT LeftHip
    {
        OFFSET 16.093196186298105 -16.093196186298105 0.0
        CHANNELS 3 Zrotation Xrotation Yrotation
        JOINT LeftKnee
        {
            OFFSET 0.0 -41.18169403076172 0.0
            CHANNELS 3 Zrotation Xrotation Yrotation
            JOINT LeftFoot
            {
                OFFSET 0.0 -43.909549713134766 0.0
                CHANNELS 3 Zrotation Xrotation Yrotation
                End Site
                {
                    OFFSET 0.0 0.0 17.563819885253906
                }
            }
        }
    }
    JOINT RightHip
    {
        OFFSET -16.093196186298105 -16.093196186298105 0.0
        CHANNELS 3 Zrotation Xrotation Yrotation
        JOINT RightKnee
        {
            OFFSET 0.0 -41.18169403076172 0.0
            CHANNELS 3 Zrotation Xrotation Yrotation
            JOINT RightFoot
            {
                OFFSET 0.0 -43.909549713134766 0.0
                CHANNELS 3 Zrotation Xrotation Yrotation
                End Site
                {
                    OFFSET 0.0 0.0 17.563819885253906
                }
            }
        }
    }
}
MOTION
Frames: 8
Frame Time: 0.03333333333333333
53.60000228881836 12.300000190734863 -98.79999542236328 -0.69236503426701 -1.90326045069983 -7.545615021970718 1.547697599203486e-08 -1.9207522447755634e-08 -2.080612695963966 120.07021198646935 4.543310218839844 -137.1775470596375 1.7753151254007881e-06 9.212601269414326e-07 139.15792492447213 6.3611093629270335e-15 -1.987846675914698e-16 1.1034765745125397e-32 -89.0917885578986 21.684698226437074 179.23587105313482 4.6637415026922545e-06 -3.7422330064613674e-06 -19.845807715308805 2.2069531490250793e-32 3.1805546814635176e-15 -7.951386703658794e-16 3.2496769484622017 3.491713018298346 -51.41215849603351 -0.5467680194428126 3.0515916308137396 -7.347096626682387 7.951386703658792e-16 -1.987846675914698e-16 -2.559352595240174e-15 -0.2528029545351836 -1.1449577935254058 31.942734493259014 1.393847713910968 9.015537562672112 17.9744921041127 1.987846675914698e-16 -7.951386703658791e-16 2.8078334297295105e-15
53.60000228881836 12.300000190734863 -98.79999542236328 -0.8680514959084579 -1.7355186481680305 -7.145638067274457 -2.816104177453825e-08 -1.391624565663149e-07 -2.174129463805207 120.38761219770383 4.020765397573212 -136.08954568459387 6.167913305304588e-07 4.672632209832438e-07 139.0460002605287 6.3611093629270335e-15 -7.951386703658792e-16 4.4139062980501586e-32 -88.68550244399155 23.012380076583838 179.55805352113387 1.5027862872993984e-06 -6.697748113169314e-06 -19.667096722947843 -3.975693351829395e-15 3.975693351829395e-15 3.975693351829395e-15 3.4688890562748362 3.3242811615432735 -50.913754557752775 -0.5694665745042904 2.948194844627599 -7.120978576282985 -3.975693351829397e-16 1.9878466759146985e-16 4.5223511877059384e-15 0.06968499018103191 -1.2708750932796584 31.39162084258957 1.232234657749135 9.38199095653307 18.763323529082207 -1.987846675914698e-16 -7.454425034680117e-16 -2.298447719026369e-15
53.60000228881836 12.199999809265137 -99.0 -0.8654294196176257 -1.0383594989211573 -6.8278404984111445 -3.869818727944586e-09 -1.2819307813000347e-08 -2.4724293514272357 120.33956089967857 3.732524008454794 -135.09472189889783 -3.271999379109482e-06 -4.1055300205847974e-06 138.68717855520373 -6.3611093629270335e-15 7.951386703658792e-16 4.4139062980501586e-32 -88.6856458535512 22.96595631280803 179.19073777683067 -5.826894867289724e-06 4.121979992911259e-06 -18.976385278220476 -7.156248033292914e-15 -3.975693351829396e-15 -1.5902773407317588e-15 3.905982975542001 2.080727041856093 -52.75793964172841 -1.327251894784036 3.1927355226303824 -7.784141062047319 -7.951386703658794e-16 -5.344964657795114e-33 7.702905869169456e-16 0.5336916693131732 -1.7799386518471392 31.091572736695834 0.5873475172150845 8.935026790275199 17.571284824889215 5.963540027744095e-16 7.951386703658792e-16 -7.814722244689657e-15
53.70000076293945 12.199999809265137 -99.0999984741211 -0.5192882040932525 -0.519266907483455 -6.854427687026524 -2.578124441752835e-08 -2.1189431155612162e-08 -2.574170278938568 120.22097963242608 3.720583500507575 -134.59526795503598 2.339587498284079e-06 -6.281143168344574e-07 139.31196119588654 -2.758691436281349e-33 1.987846675914698e-16 1.5902773407317584e-15 -88.8051743081929 21.971611113805302 179.47714500621606 1.666793228041788e-06 -4.0804717199638165e-06 -19.45802623309959 8.348956038841733e-15 -7.951386703658796e-16 -2.3854160110976384e-15 3.556437553943156 0.9491570543138955 -51.27244999346228 -1.8853155604850071 3.792191277213912 -9.285554781264324 7.951386703658792e-16 -5.327722836318355e-32 -7.67805778572052e-15 0.1174368337954067 -2.3525627635543445 30.69499256815365 0.5914835122209201 8.76456473641036 17.48770883548678 -1.9878466759146985e-16 7.951386703658794e-16 -2.770561304556111e-15
53.70000076293945 12.199999809265137 -99.19999694824219 -0.5192881852463905 0.17308876638592063 -6.135526447632151 -2.5642431438246027e-08 -4.0070144025418065e-09 -2.8090523664612914 120.00705600070995 3.278430941105876 -133.7021382766921 2.857261178149045e-06 -2.3288857546753178e-07 139.32406176035073 1.1034765745125397e-32 -7.951386703658792e-16 1.5902773407317584e-15 -88.85944677833585 20.96732928633141 179.55830874260167 2.550752104494182e-06 2.02345973827068e-06 -19.60599836090627 -6.361109362927033e-15 -4.4139062980501586e-32 7.951386703658791e-16 3.8128727064752765 -0.0496580631703249 -51.089612939838034 -2.0314931600595556 3.7826789676392143 -9.52253813839942 3.975693351829396e-16 -9.93923337957349e-16 -1.5654292572828246e-15 0.31255748829265884 -3.163290109341394 29.604051788932324 0.3402269874716606 8.999391113425109 18.058980221211396 3.975693351829397e-16 7.888133325616982e-33 2.273599635577436e-15
53.79999923706055 12.300000190734863 -99.29999542236328 -0.346201774458126 0.6923391605964581 -5.745195992801844 3.819168852036605e-08 -9.758990302056945e-09 -3.17957093160769 119.23467453119952 3.4271152088238344 -133.88212341460755 4.126205301680296e-06 1.8307315986144942e-06 139.71871581585205 0.0 -9.939233379573489e-17 0.0 -89.35194846103185 18.090559252093065 -179.7922509680255 -2.789410410945797e-06 3.8099638124928342e-06 -20.331097810132746 -8.348956038841732e-15 -3.1805546814635168e-15 -1.5902773407317588e-15 3.42462982621155 -0.778385958058426 -48.087942181743976 -1.5105739360380863 3.8518711364836324 -10.093727620920014 3.975693351829396e-16 -1.987846675914698e-16 3.2302508483613845e-16 0.07574429038133142 -4.119786530819105 27.637017720712272 0.2968915388169847 9.503003963325922 19.6367521533437 1.4914175577396045e-32 7.951386703658792e-16 -2.1493592183327674e-15
53.70000076293945 12.300000190734863 -99.5 -0.34618855114676406 1.903351607900259 -5.075451967654464 3.95375766923243e-08 -3.719527071268672e-07 -2.052285916565225 118.73818877215639 1.8192822872688166 -132.2045058101387 3.4154739221206025e-06 -9.851862773572908e-07 139.8616778514869 0.0 7.951386703658792e-16 0.0 -88.95606272278549 18.736503189545978 179.74939185965414 4.528751534174628e-07 -2.6128416861992548e-06 -20.925667223466252 9.93923337957349e-16 3.793200724886855e-32 4.373262687012335e-15 3.729726338763496 -2.7162945421549116 -46.84845665640872 -2.1394835943760078 4.304220497539809 -11.53030403594766 -3.9756933518293955e-16 -6.638101268551996e-33 1.9133024255678963e-15 0.40785662871757994 -5.3025865211078145 26.802330608006184 -0.25915119294290856 9.288918828326093 19.38992266390282 0.0 0.0 -1.254828214171153e-15
53.79999923706055 12.399999618530273 -99.5999984741211 -1.419960671232366e-08 2.767427924885413 -4.751803407840489 2.939084668822905e-09 3.1462642682197995e-07 -2.6545491538809944 117.94483469973808 2.1694348627152467 -134.2621581625434 -1.81414872081804e-06 1.035856148362466e-06 140.85626742161537 6.3611093629270335e-15 -7.951386703658791e-16 1.5902773407317584e-15 -89.50444373633313 16.174262127506264 -179.7738338040124 -1.498865313057072e-07 -3.3074963130709692e-06 -22.281808593999045 -7.255640367088649e-15 -3.1805546814635176e-15 -1.1927080055488194e-15 3.4921521967569937 -4.191624166603156 -42.72619067006399 -2.2079284006981443 4.450506993751053 -12.631533319628181 5.689801087330283e-33 7.951386703658794e-16 -8.199867538148131e-16 0.0008783860431767352 -6.613039803324003 23.673739818466373 -0.6158272813603359 9.511632583640578 20.890565252082226 3.975693351829396e-16 9.93923337957349e-17 -2.4848083448933725e-16
